<?xml version="1.0" encoding="UTF-8" standalone="no"?>
<!-- Created with Inkscape (http://www.inkscape.org/) -->

<svg
   version="1.1"
   id="svg2"
   xml:space="preserve"
   width="480"
   height="328"
   viewBox="0 0 480 328"
   sodipodi:docname="displacement_chemo_tex.svg"
   inkscape:version="1.1.1 (3bf5ae0d25, 2021-09-20)"
   xmlns:inkscape="http://www.inkscape.org/namespaces/inkscape"
   xmlns:sodipodi="http://sodipodi.sourceforge.net/DTD/sodipodi-0.dtd"
   xmlns="http://www.w3.org/2000/svg"
   xmlns:svg="http://www.w3.org/2000/svg"><defs
     id="defs6" /><sodipodi:namedview
     id="namedview4"
     pagecolor="#ffffff"
     bordercolor="#666666"
     borderopacity="1.0"
     inkscape:pageshadow="2"
     inkscape:pageopacity="0.0"
     inkscape:pagecheckerboard="0"
     showgrid="false"
     inkscape:zoom="1.1675901"
     inkscape:cx="184.13997"
     inkscape:cy="50.959667"
     inkscape:window-width="1920"
     inkscape:window-height="1009"
     inkscape:window-x="-8"
     inkscape:window-y="-8"
     inkscape:window-maximized="1"
     inkscape:current-layer="g10" /><g
     id="g8"
     inkscape:groupmode="layer"
     inkscape:label="displacement_chemo"
     transform="matrix(1.3333333,0,0,1.3333333,0,8.2e-6)"><g
       id="g10"><path
         d="M 0,0 H 360 V 246 H 0 Z"
         style="fill:none;stroke:#ffffff;stroke-width:1;stroke-linecap:butt;stroke-linejoin:miter;stroke-miterlimit:10;stroke-dasharray:none;stroke-opacity:1"
         id="path14" /><path
         d="M 10,228.277 43.012,129.453 76.023,30.625 h 264.098"
         style="fill:none;stroke:#aa0000;stroke-width:1.6;stroke-linecap:square;stroke-linejoin:miter;stroke-miterlimit:3.25;stroke-dasharray:none;stroke-opacity:1"
         id="path16" /><path
         d="m 10,228.277 v -4"
         style="fill:none;stroke:#666666;stroke-width:0.2;stroke-linecap:butt;stroke-linejoin:miter;stroke-miterlimit:3.25;stroke-dasharray:none;stroke-opacity:1"
         id="path26" /><g
         aria-label="●●
●●●●●●●●●"
         transform="translate(6.5,230.77745)"
         id="text24"
         style="font-size:10px;font-family:MathematicaSans;-inkscape-font-specification:MathematicaSans;fill:#aa0000"><path
           d="m 0.86425781,-2.8125 q 0,-0.8935547 0.62988279,-1.5234375 0.6298828,-0.6298828 1.5234375,-0.6298828 0.8886719,0 1.5185547,0.6298828 0.6298828,0.6298828 0.6298828,1.5234375 0,0.8886719 -0.6298828,1.5185547 -0.6298828,0.6298828 -1.5185547,0.6298828 -0.8935547,0 -1.5234375,-0.6298828 Q 0.86425781,-1.9238281 0.86425781,-2.8125 Z"
           id="path1127" /><path
           d="m 33.876499,-101.63803 q 0,-0.89356 0.629883,-1.52344 0.629883,-0.62988 1.523437,-0.62988 0.888672,0 1.518555,0.62988 0.629883,0.62988 0.629883,1.52344 0,0.88867 -0.629883,1.51855 -0.629883,0.629886 -1.518555,0.629886 -0.893554,0 -1.523437,-0.629886 -0.629883,-0.62988 -0.629883,-1.51855 z"
           id="path1129" /><path
           d="m 66.888741,-200.46356 q 0,-0.89356 0.629882,-1.52344 0.629883,-0.62988 1.523438,-0.62988 0.888672,0 1.518555,0.62988 0.629882,0.62988 0.629882,1.52344 0,0.88867 -0.629882,1.51855 -0.629883,0.62989 -1.518555,0.62989 -0.893555,0 -1.523438,-0.62989 -0.629882,-0.62988 -0.629882,-1.51855 z"
           id="path1131" /><path
           d="m 99.898735,-200.46356 q 0,-0.89356 0.629885,-1.52344 0.62988,-0.62988 1.52344,-0.62988 0.88867,0 1.51855,0.62988 0.62988,0.62988 0.62988,1.52344 0,0.88867 -0.62988,1.51855 -0.62988,0.62989 -1.51855,0.62989 -0.89356,0 -1.52344,-0.62989 -0.629885,-0.62988 -0.629885,-1.51855 z"
           id="path1133" /><path
           d="m 132.90874,-200.46356 q 0,-0.89356 0.62988,-1.52344 0.62988,-0.62988 1.52344,-0.62988 0.88867,0 1.51855,0.62988 0.62988,0.62988 0.62988,1.52344 0,0.88867 -0.62988,1.51855 -0.62988,0.62989 -1.51855,0.62989 -0.89356,0 -1.52344,-0.62989 -0.62988,-0.62988 -0.62988,-1.51855 z"
           id="path1135" /><path
           d="m 165.91873,-200.46356 q 0,-0.89356 0.62988,-1.52344 0.62989,-0.62988 1.52344,-0.62988 0.88867,0 1.51856,0.62988 0.62988,0.62988 0.62988,1.52344 0,0.88867 -0.62988,1.51855 -0.62989,0.62989 -1.51856,0.62989 -0.89355,0 -1.52344,-0.62989 -0.62988,-0.62988 -0.62988,-1.51855 z"
           id="path1137" /><path
           d="m 198.93771,-200.46356 q 0,-0.89356 0.62989,-1.52344 0.62988,-0.62988 1.52343,-0.62988 0.88868,0 1.51856,0.62988 0.62988,0.62988 0.62988,1.52344 0,0.88867 -0.62988,1.51855 -0.62988,0.62989 -1.51856,0.62989 -0.89355,0 -1.52343,-0.62989 -0.62989,-0.62988 -0.62989,-1.51855 z"
           id="path1139" /><path
           d="m 231.94772,-200.46356 q 0,-0.89356 0.62989,-1.52344 0.62988,-0.62988 1.52343,-0.62988 0.88868,0 1.51856,0.62988 0.62988,0.62988 0.62988,1.52344 0,0.88867 -0.62988,1.51855 -0.62988,0.62989 -1.51856,0.62989 -0.89355,0 -1.52343,-0.62989 -0.62989,-0.62988 -0.62989,-1.51855 z"
           id="path1141" /><path
           d="m 264.9577,-200.46356 q 0,-0.89356 0.62989,-1.52344 0.62988,-0.62988 1.52343,-0.62988 0.88867,0 1.51856,0.62988 0.62988,0.62988 0.62988,1.52344 0,0.88867 -0.62988,1.51855 -0.62989,0.62989 -1.51856,0.62989 -0.89355,0 -1.52343,-0.62989 -0.62989,-0.62988 -0.62989,-1.51855 z"
           id="path1143" /><path
           d="m 297.96771,-200.46356 q 0,-0.89356 0.62989,-1.52344 0.62988,-0.62988 1.52343,-0.62988 0.88867,0 1.51856,0.62988 0.62988,0.62988 0.62988,1.52344 0,0.88867 -0.62988,1.51855 -0.62989,0.62989 -1.51856,0.62989 -0.89355,0 -1.52343,-0.62989 -0.62989,-0.62988 -0.62989,-1.51855 z"
           id="path1145" /><path
           d="m 330.98669,-200.46356 q 0,-0.89356 0.62989,-1.52344 0.62988,-0.62988 1.52343,-0.62988 0.88868,0 1.51856,0.62988 0.62988,0.62988 0.62988,1.52344 0,0.88867 -0.62988,1.51855 -0.62988,0.62989 -1.51856,0.62989 -0.89355,0 -1.52343,-0.62989 -0.62989,-0.62988 -0.62989,-1.51855 z"
           id="path1147" /></g><path
         d="m 26.508,228.277 v -2.398"
         style="fill:none;stroke:#666666;stroke-width:0.2;stroke-linecap:butt;stroke-linejoin:miter;stroke-miterlimit:3.25;stroke-dasharray:none;stroke-opacity:1"
         id="path28" /><path
         d="m 43.012,228.277 v -2.398"
         style="fill:none;stroke:#666666;stroke-width:0.2;stroke-linecap:butt;stroke-linejoin:miter;stroke-miterlimit:3.25;stroke-dasharray:none;stroke-opacity:1"
         id="path30" /><path
         d="m 59.52,228.277 v -2.398"
         style="fill:none;stroke:#666666;stroke-width:0.2;stroke-linecap:butt;stroke-linejoin:miter;stroke-miterlimit:3.25;stroke-dasharray:none;stroke-opacity:1"
         id="path32" /><path
         d="m 76.023,228.277 v -4"
         style="fill:none;stroke:#666666;stroke-width:0.2;stroke-linecap:butt;stroke-linejoin:miter;stroke-miterlimit:3.25;stroke-dasharray:none;stroke-opacity:1"
         id="path34" /><text
         style="font-variant:normal;font-weight:normal;font-size:14px;font-family:Times;-inkscape-font-specification:Times-Roman;writing-mode:lr-tb;fill:#000000;fill-opacity:1;fill-rule:nonzero;stroke:none"
         id="text38"
         x="62.802444"
         y="248.45493"><tspan
           x="62.802444 69.802444 73.302444"
           y="248.45493"
           sodipodi:role="line"
           id="tspan36">0.2</tspan></text><path
         d="m 92.531,228.277 v -2.398"
         style="fill:none;stroke:#666666;stroke-width:0.2;stroke-linecap:butt;stroke-linejoin:miter;stroke-miterlimit:3.25;stroke-dasharray:none;stroke-opacity:1"
         id="path40" /><path
         d="m 109.035,228.277 v -2.398"
         style="fill:none;stroke:#666666;stroke-width:0.2;stroke-linecap:butt;stroke-linejoin:miter;stroke-miterlimit:3.25;stroke-dasharray:none;stroke-opacity:1"
         id="path42" /><path
         d="m 125.543,228.277 v -2.398"
         style="fill:none;stroke:#666666;stroke-width:0.2;stroke-linecap:butt;stroke-linejoin:miter;stroke-miterlimit:3.25;stroke-dasharray:none;stroke-opacity:1"
         id="path44" /><path
         d="m 142.051,228.277 v -4"
         style="fill:none;stroke:#666666;stroke-width:0.2;stroke-linecap:butt;stroke-linejoin:miter;stroke-miterlimit:3.25;stroke-dasharray:none;stroke-opacity:1"
         id="path46" /><text
         style="font-variant:normal;font-weight:normal;font-size:14px;font-family:Times;-inkscape-font-specification:Times-Roman;writing-mode:lr-tb;fill:#000000;fill-opacity:1;fill-rule:nonzero;stroke:none"
         id="text50"
         x="128.82693"
         y="248.45493"><tspan
           x="128.82693 135.82693 139.32693"
           y="248.45493"
           sodipodi:role="line"
           id="tspan48">0.4</tspan></text><path
         d="m 158.555,228.277 v -2.398"
         style="fill:none;stroke:#666666;stroke-width:0.2;stroke-linecap:butt;stroke-linejoin:miter;stroke-miterlimit:3.25;stroke-dasharray:none;stroke-opacity:1"
         id="path52" /><path
         d="m 175.062,228.277 v -2.398"
         style="fill:none;stroke:#666666;stroke-width:0.2;stroke-linecap:butt;stroke-linejoin:miter;stroke-miterlimit:3.25;stroke-dasharray:none;stroke-opacity:1"
         id="path54" /><path
         d="m 191.566,228.277 v -2.398"
         style="fill:none;stroke:#666666;stroke-width:0.2;stroke-linecap:butt;stroke-linejoin:miter;stroke-miterlimit:3.25;stroke-dasharray:none;stroke-opacity:1"
         id="path56" /><path
         d="m 208.074,228.277 v -4"
         style="fill:none;stroke:#666666;stroke-width:0.2;stroke-linecap:butt;stroke-linejoin:miter;stroke-miterlimit:3.25;stroke-dasharray:none;stroke-opacity:1"
         id="path58" /><text
         style="font-variant:normal;font-weight:normal;font-size:14px;font-family:Times;-inkscape-font-specification:Times-Roman;writing-mode:lr-tb;fill:#000000;fill-opacity:1;fill-rule:nonzero;stroke:none"
         id="text62"
         x="194.85143"
         y="248.45493"><tspan
           x="194.85143 201.85143 205.35143"
           y="248.45493"
           sodipodi:role="line"
           id="tspan60">0.6</tspan></text><path
         d="m 224.578,228.277 v -2.398"
         style="fill:none;stroke:#666666;stroke-width:0.2;stroke-linecap:butt;stroke-linejoin:miter;stroke-miterlimit:3.25;stroke-dasharray:none;stroke-opacity:1"
         id="path64" /><path
         d="m 241.086,228.277 v -2.398"
         style="fill:none;stroke:#666666;stroke-width:0.2;stroke-linecap:butt;stroke-linejoin:miter;stroke-miterlimit:3.25;stroke-dasharray:none;stroke-opacity:1"
         id="path66" /><path
         d="m 257.594,228.277 v -2.398"
         style="fill:none;stroke:#666666;stroke-width:0.2;stroke-linecap:butt;stroke-linejoin:miter;stroke-miterlimit:3.25;stroke-dasharray:none;stroke-opacity:1"
         id="path68" /><path
         d="m 274.098,228.277 v -4"
         style="fill:none;stroke:#666666;stroke-width:0.2;stroke-linecap:butt;stroke-linejoin:miter;stroke-miterlimit:3.25;stroke-dasharray:none;stroke-opacity:1"
         id="path70" /><text
         style="font-variant:normal;font-weight:normal;font-size:14px;font-family:Times;-inkscape-font-specification:Times-Roman;writing-mode:lr-tb;fill:#000000;fill-opacity:1;fill-rule:nonzero;stroke:none"
         id="text74"
         x="260.87592"
         y="248.45493"><tspan
           x="260.87592 267.87592 271.37592"
           y="248.45493"
           sodipodi:role="line"
           id="tspan72">0.8</tspan></text><path
         d="m 290.605,228.277 v -2.398"
         style="fill:none;stroke:#666666;stroke-width:0.2;stroke-linecap:butt;stroke-linejoin:miter;stroke-miterlimit:3.25;stroke-dasharray:none;stroke-opacity:1"
         id="path76" /><path
         d="m 307.109,228.277 v -2.398"
         style="fill:none;stroke:#666666;stroke-width:0.2;stroke-linecap:butt;stroke-linejoin:miter;stroke-miterlimit:3.25;stroke-dasharray:none;stroke-opacity:1"
         id="path78" /><path
         d="m 323.617,228.277 v -2.398"
         style="fill:none;stroke:#666666;stroke-width:0.2;stroke-linecap:butt;stroke-linejoin:miter;stroke-miterlimit:3.25;stroke-dasharray:none;stroke-opacity:1"
         id="path80" /><path
         d="m 340.121,228.277 v -4"
         style="fill:none;stroke:#666666;stroke-width:0.2;stroke-linecap:butt;stroke-linejoin:miter;stroke-miterlimit:3.25;stroke-dasharray:none;stroke-opacity:1"
         id="path82" /><text
         style="font-variant:normal;font-weight:normal;font-size:14px;font-family:Times;-inkscape-font-specification:Times-Roman;writing-mode:lr-tb;fill:#000000;fill-opacity:1;fill-rule:nonzero;stroke:none"
         id="text86"
         x="326.90039"
         y="248.45493"><tspan
           x="326.90039 333.90039 337.40039"
           y="248.45493"
           sodipodi:role="line"
           id="tspan84">1.0</tspan></text><path
         d="M 3.121,228.277 H 347"
         style="fill:none;stroke:#666666;stroke-width:0.2;stroke-linecap:butt;stroke-linejoin:miter;stroke-miterlimit:3.25;stroke-dasharray:none;stroke-opacity:1"
         id="path88" /><text
         transform="translate(355,231.27745)"
         style="font-variant:normal;font-weight:normal;font-size:14px;font-family:Times;-inkscape-font-specification:Times-Roman;writing-mode:lr-tb;fill:#000000;fill-opacity:1;fill-rule:nonzero;stroke:none"
         id="text92"><tspan
           x="0"
           y="0"
           id="tspan90">$t$</tspan></text><path
         d="m 10,228.277 h 4"
         style="fill:none;stroke:#666666;stroke-width:0.2;stroke-linecap:butt;stroke-linejoin:miter;stroke-miterlimit:3.25;stroke-dasharray:none;stroke-opacity:1"
         id="path94" /><path
         d="m 10,217.766 h 2.398"
         style="fill:none;stroke:#666666;stroke-width:0.2;stroke-linecap:butt;stroke-linejoin:miter;stroke-miterlimit:3.25;stroke-dasharray:none;stroke-opacity:1"
         id="path96" /><path
         d="m 10,207.25 h 2.398"
         style="fill:none;stroke:#666666;stroke-width:0.2;stroke-linecap:butt;stroke-linejoin:miter;stroke-miterlimit:3.25;stroke-dasharray:none;stroke-opacity:1"
         id="path98" /><path
         d="m 10,196.738 h 2.398"
         style="fill:none;stroke:#666666;stroke-width:0.2;stroke-linecap:butt;stroke-linejoin:miter;stroke-miterlimit:3.25;stroke-dasharray:none;stroke-opacity:1"
         id="path100" /><path
         d="m 10,186.223 h 2.398"
         style="fill:none;stroke:#666666;stroke-width:0.2;stroke-linecap:butt;stroke-linejoin:miter;stroke-miterlimit:3.25;stroke-dasharray:none;stroke-opacity:1"
         id="path102" /><path
         d="m 10,175.711 h 4"
         style="fill:none;stroke:#666666;stroke-width:0.2;stroke-linecap:butt;stroke-linejoin:miter;stroke-miterlimit:3.25;stroke-dasharray:none;stroke-opacity:1"
         id="path104" /><text
         style="font-variant:normal;font-weight:normal;font-size:14px;font-family:Times;-inkscape-font-specification:Times-Roman;writing-mode:lr-tb;fill:#000000;fill-opacity:1;fill-rule:nonzero;stroke:none"
         id="text108"
         x="-3.8540926"
         y="178.71065"><tspan
           x="-3.8540926"
           y="178.71065"
           id="tspan106">1</tspan></text><path
         d="m 10,165.199 h 2.398"
         style="fill:none;stroke:#666666;stroke-width:0.2;stroke-linecap:butt;stroke-linejoin:miter;stroke-miterlimit:3.25;stroke-dasharray:none;stroke-opacity:1"
         id="path110" /><path
         d="m 10,154.684 h 2.398"
         style="fill:none;stroke:#666666;stroke-width:0.2;stroke-linecap:butt;stroke-linejoin:miter;stroke-miterlimit:3.25;stroke-dasharray:none;stroke-opacity:1"
         id="path112" /><path
         d="m 10,144.172 h 2.398"
         style="fill:none;stroke:#666666;stroke-width:0.2;stroke-linecap:butt;stroke-linejoin:miter;stroke-miterlimit:3.25;stroke-dasharray:none;stroke-opacity:1"
         id="path114" /><path
         d="m 10,133.656 h 2.398"
         style="fill:none;stroke:#666666;stroke-width:0.2;stroke-linecap:butt;stroke-linejoin:miter;stroke-miterlimit:3.25;stroke-dasharray:none;stroke-opacity:1"
         id="path116" /><path
         d="m 10,123.145 h 4"
         style="fill:none;stroke:#666666;stroke-width:0.2;stroke-linecap:butt;stroke-linejoin:miter;stroke-miterlimit:3.25;stroke-dasharray:none;stroke-opacity:1"
         id="path118" /><text
         style="font-variant:normal;font-weight:normal;font-size:14px;font-family:Times;-inkscape-font-specification:Times-Roman;writing-mode:lr-tb;fill:#000000;fill-opacity:1;fill-rule:nonzero;stroke:none"
         id="text122"
         x="-3.8540926"
         y="126.14382"><tspan
           x="-3.8540926"
           y="126.14382"
           id="tspan120">2</tspan></text><path
         d="m 10,112.629 h 2.398"
         style="fill:none;stroke:#666666;stroke-width:0.2;stroke-linecap:butt;stroke-linejoin:miter;stroke-miterlimit:3.25;stroke-dasharray:none;stroke-opacity:1"
         id="path124" /><path
         d="m 10,102.117 h 2.398"
         style="fill:none;stroke:#666666;stroke-width:0.2;stroke-linecap:butt;stroke-linejoin:miter;stroke-miterlimit:3.25;stroke-dasharray:none;stroke-opacity:1"
         id="path126" /><path
         d="m 10,91.605 h 2.398"
         style="fill:none;stroke:#666666;stroke-width:0.2;stroke-linecap:butt;stroke-linejoin:miter;stroke-miterlimit:3.25;stroke-dasharray:none;stroke-opacity:1"
         id="path128" /><path
         d="m 10,81.09 h 2.398"
         style="fill:none;stroke:#666666;stroke-width:0.2;stroke-linecap:butt;stroke-linejoin:miter;stroke-miterlimit:3.25;stroke-dasharray:none;stroke-opacity:1"
         id="path130" /><path
         d="m 10,70.578 h 4"
         style="fill:none;stroke:#666666;stroke-width:0.2;stroke-linecap:butt;stroke-linejoin:miter;stroke-miterlimit:3.25;stroke-dasharray:none;stroke-opacity:1"
         id="path132" /><text
         style="font-variant:normal;font-weight:normal;font-size:14px;font-family:Times;-inkscape-font-specification:Times-Roman;writing-mode:lr-tb;fill:#000000;fill-opacity:1;fill-rule:nonzero;stroke:none"
         id="text136"
         x="-3.8540926"
         y="73.577003"><tspan
           x="-3.8540926"
           y="73.577003"
           id="tspan134">3</tspan></text><path
         d="m 10,60.062 h 2.398"
         style="fill:none;stroke:#666666;stroke-width:0.2;stroke-linecap:butt;stroke-linejoin:miter;stroke-miterlimit:3.25;stroke-dasharray:none;stroke-opacity:1"
         id="path138" /><path
         d="m 10,49.551 h 2.398"
         style="fill:none;stroke:#666666;stroke-width:0.2;stroke-linecap:butt;stroke-linejoin:miter;stroke-miterlimit:3.25;stroke-dasharray:none;stroke-opacity:1"
         id="path140" /><path
         d="m 10,39.035 h 2.398"
         style="fill:none;stroke:#666666;stroke-width:0.2;stroke-linecap:butt;stroke-linejoin:miter;stroke-miterlimit:3.25;stroke-dasharray:none;stroke-opacity:1"
         id="path142" /><path
         d="m 10,28.523 h 2.398"
         style="fill:none;stroke:#666666;stroke-width:0.2;stroke-linecap:butt;stroke-linejoin:miter;stroke-miterlimit:3.25;stroke-dasharray:none;stroke-opacity:1"
         id="path144" /><path
         d="M 10,232.527 V 20"
         style="fill:none;stroke:#666666;stroke-width:0.2;stroke-linecap:butt;stroke-linejoin:miter;stroke-miterlimit:3.25;stroke-dasharray:none;stroke-opacity:1"
         id="path146" /><text
         transform="translate(6.5,10)"
         style="font-variant:normal;font-weight:normal;font-size:14px;font-family:Times;-inkscape-font-specification:Times-Roman;writing-mode:lr-tb;fill:#000000;fill-opacity:1;fill-rule:nonzero;stroke:none"
         id="text150"><tspan
           x="0"
           y="0"
           id="tspan148">$u\left(r_i;0\right)$</tspan></text></g></g></svg>
