<?xml version="1.0" encoding="UTF-8" standalone="no"?>
<!-- Created with Inkscape (http://www.inkscape.org/) -->

<svg
   version="1.1"
   id="svg2"
   xml:space="preserve"
   width="480"
   height="322.66666"
   viewBox="0 0 480 322.66666"
   sodipodi:docname="lambda_chemoelastic_tex.svg"
   inkscape:version="1.1.1 (3bf5ae0d25, 2021-09-20)"
   xmlns:inkscape="http://www.inkscape.org/namespaces/inkscape"
   xmlns:sodipodi="http://sodipodi.sourceforge.net/DTD/sodipodi-0.dtd"
   xmlns="http://www.w3.org/2000/svg"
   xmlns:svg="http://www.w3.org/2000/svg"><defs
     id="defs6" /><sodipodi:namedview
     id="namedview4"
     pagecolor="#ffffff"
     bordercolor="#666666"
     borderopacity="1.0"
     inkscape:pageshadow="2"
     inkscape:pageopacity="0.0"
     inkscape:pagecheckerboard="0"
     showgrid="false"
     inkscape:zoom="1.2768595"
     inkscape:cx="263.14562"
     inkscape:cy="169.55663"
     inkscape:window-width="1920"
     inkscape:window-height="1009"
     inkscape:window-x="-8"
     inkscape:window-y="-8"
     inkscape:window-maximized="1"
     inkscape:current-layer="g10" /><g
     id="g8"
     inkscape:groupmode="layer"
     inkscape:label="lambda_chemoelastic"
     transform="matrix(1.3333333,0,0,1.3333333,0,1.14e-5)"><g
       id="g10"><path
         d="M 23,222.242 54.738,127.23 86.477,32.215 h 253.91"
         style="fill:none;stroke:#41b700;stroke-width:1.6;stroke-linecap:square;stroke-linejoin:miter;stroke-miterlimit:3.25;stroke-dasharray:none;stroke-opacity:1"
         id="path16" /><path
         d="m 23,222.242 v -3.918"
         style="fill:none;stroke:#666666;stroke-width:0.2;stroke-linecap:butt;stroke-linejoin:miter;stroke-miterlimit:3.25;stroke-dasharray:none;stroke-opacity:1"
         id="path26" /><g
         aria-label="●●
●●●●●●●●●"
         transform="translate(19.5,224.74301)"
         id="text24"
         style="font-size:10px;font-family:MathematicaSans;-inkscape-font-specification:MathematicaSans;fill:#41b700;fill-opacity:1"><path
           d="m 0.86425781,-2.8125 q 0,-0.8935547 0.62988279,-1.5234375 0.6298828,-0.6298828 1.5234375,-0.6298828 0.8886719,0 1.5185547,0.6298828 0.6298828,0.6298828 0.6298828,1.5234375 0,0.8886719 -0.6298828,1.5185547 -0.6298828,0.6298828 -1.5185547,0.6298828 -0.8935547,0 -1.5234375,-0.6298828 Q 0.86425781,-1.9238281 0.86425781,-2.8125 Z"
           id="path3085"
           style="fill:#41b700;fill-opacity:1" /><path
           d="m 32.603037,-97.825768 q 0,-0.893554 0.629883,-1.523437 0.629883,-0.629883 1.523437,-0.629883 0.888672,0 1.518555,0.629883 0.629883,0.629883 0.629883,1.523437 0,0.888672 -0.629883,1.518555 -0.629883,0.629883 -1.518555,0.629883 -0.893554,0 -1.523437,-0.629883 -0.629883,-0.629883 -0.629883,-1.518555 z"
           id="path3087"
           style="fill:#41b700;fill-opacity:1" /><path
           d="m 64.341816,-192.83904 q 0,-0.89355 0.629883,-1.52343 0.629883,-0.62989 1.523437,-0.62989 0.888672,0 1.518555,0.62989 0.629883,0.62988 0.629883,1.52343 0,0.88868 -0.629883,1.51856 -0.629883,0.62988 -1.518555,0.62988 -0.893554,0 -1.523437,-0.62988 -0.629883,-0.62988 -0.629883,-1.51856 z"
           id="path3089"
           style="fill:#41b700;fill-opacity:1" /><path
           d="m 96.081818,-192.83904 q 0,-0.89355 0.629882,-1.52343 0.629883,-0.62989 1.523438,-0.62989 0.888672,0 1.518555,0.62989 0.629887,0.62988 0.629887,1.52343 0,0.88868 -0.629887,1.51856 -0.629883,0.62988 -1.518555,0.62988 -0.893555,0 -1.523438,-0.62988 -0.629882,-0.62988 -0.629882,-1.51856 z"
           id="path3091"
           style="fill:#41b700;fill-opacity:1" /><path
           d="m 127.81182,-192.83904 q 0,-0.89355 0.62988,-1.52343 0.62989,-0.62989 1.52344,-0.62989 0.88867,0 1.51856,0.62989 0.62988,0.62988 0.62988,1.52343 0,0.88868 -0.62988,1.51856 -0.62989,0.62988 -1.51856,0.62988 -0.89355,0 -1.52344,-0.62988 -0.62988,-0.62988 -0.62988,-1.51856 z"
           id="path3093"
           style="fill:#41b700;fill-opacity:1" /><path
           d="m 159.55182,-192.83904 q 0,-0.89355 0.62988,-1.52343 0.62988,-0.62989 1.52344,-0.62989 0.88867,0 1.51855,0.62989 0.62989,0.62988 0.62989,1.52343 0,0.88868 -0.62989,1.51856 -0.62988,0.62988 -1.51855,0.62988 -0.89356,0 -1.52344,-0.62988 -0.62988,-0.62988 -0.62988,-1.51856 z"
           id="path3095"
           style="fill:#41b700;fill-opacity:1" /><path
           d="m 191.29182,-192.83904 q 0,-0.89355 0.62989,-1.52343 0.62988,-0.62989 1.52343,-0.62989 0.88868,0 1.51856,0.62989 0.62988,0.62988 0.62988,1.52343 0,0.88868 -0.62988,1.51856 -0.62988,0.62988 -1.51856,0.62988 -0.89355,0 -1.52343,-0.62988 -0.62989,-0.62988 -0.62989,-1.51856 z"
           id="path3097"
           style="fill:#41b700;fill-opacity:1" /><path
           d="m 223.03569,-192.83904 q 0,-0.89355 0.62988,-1.52343 0.62989,-0.62989 1.52344,-0.62989 0.88867,0 1.51856,0.62989 0.62988,0.62988 0.62988,1.52343 0,0.88868 -0.62988,1.51856 -0.62989,0.62988 -1.51856,0.62988 -0.89355,0 -1.52344,-0.62988 -0.62988,-0.62988 -0.62988,-1.51856 z"
           id="path3099"
           style="fill:#41b700;fill-opacity:1" /><path
           d="m 254.7757,-192.83904 q 0,-0.89355 0.62988,-1.52343 0.62988,-0.62989 1.52344,-0.62989 0.88867,0 1.51855,0.62989 0.62988,0.62988 0.62988,1.52343 0,0.88868 -0.62988,1.51856 -0.62988,0.62988 -1.51855,0.62988 -0.89356,0 -1.52344,-0.62988 -0.62988,-0.62988 -0.62988,-1.51856 z"
           id="path3101"
           style="fill:#41b700;fill-opacity:1" /><path
           d="m 286.50571,-192.83904 q 0,-0.89355 0.62988,-1.52343 0.62988,-0.62989 1.52344,-0.62989 0.88867,0 1.51855,0.62989 0.62988,0.62988 0.62988,1.52343 0,0.88868 -0.62988,1.51856 -0.62988,0.62988 -1.51855,0.62988 -0.89356,0 -1.52344,-0.62988 -0.62988,-0.62988 -0.62988,-1.51856 z"
           id="path3103"
           style="fill:#41b700;fill-opacity:1" /><path
           d="m 318.2457,-192.83904 q 0,-0.89355 0.62988,-1.52343 0.62988,-0.62989 1.52344,-0.62989 0.88867,0 1.51855,0.62989 0.62988,0.62988 0.62988,1.52343 0,0.88868 -0.62988,1.51856 -0.62988,0.62988 -1.51855,0.62988 -0.89356,0 -1.52344,-0.62988 -0.62988,-0.62988 -0.62988,-1.51856 z"
           id="path3105"
           style="fill:#41b700;fill-opacity:1" /></g><path
         d="m 38.871,222.242 v -2.347"
         style="fill:none;stroke:#666666;stroke-width:0.2;stroke-linecap:butt;stroke-linejoin:miter;stroke-miterlimit:3.25;stroke-dasharray:none;stroke-opacity:1"
         id="path28" /><path
         d="m 54.738,222.242 v -2.347"
         style="fill:none;stroke:#666666;stroke-width:0.2;stroke-linecap:butt;stroke-linejoin:miter;stroke-miterlimit:3.25;stroke-dasharray:none;stroke-opacity:1"
         id="path30" /><path
         d="m 70.609,222.242 v -2.347"
         style="fill:none;stroke:#666666;stroke-width:0.2;stroke-linecap:butt;stroke-linejoin:miter;stroke-miterlimit:3.25;stroke-dasharray:none;stroke-opacity:1"
         id="path32" /><path
         d="m 86.477,222.242 v -3.918"
         style="fill:none;stroke:#666666;stroke-width:0.2;stroke-linecap:butt;stroke-linejoin:miter;stroke-miterlimit:3.25;stroke-dasharray:none;stroke-opacity:1"
         id="path34" /><text
         style="font-variant:normal;font-weight:normal;font-size:16px;font-family:Times;-inkscape-font-specification:Times-Roman;writing-mode:lr-tb;fill:#000000;fill-opacity:1;fill-rule:nonzero;stroke:none"
         id="text38"
         x="70.016388"
         y="247.22844"><tspan
           x="70.016388 78.016388 82.016388"
           y="247.22844"
           sodipodi:role="line"
           id="tspan36">0.2</tspan></text><path
         d="m 102.348,222.242 v -2.347"
         style="fill:none;stroke:#666666;stroke-width:0.2;stroke-linecap:butt;stroke-linejoin:miter;stroke-miterlimit:3.25;stroke-dasharray:none;stroke-opacity:1"
         id="path40" /><path
         d="m 118.215,222.242 v -2.347"
         style="fill:none;stroke:#666666;stroke-width:0.2;stroke-linecap:butt;stroke-linejoin:miter;stroke-miterlimit:3.25;stroke-dasharray:none;stroke-opacity:1"
         id="path42" /><path
         d="m 134.086,222.242 v -2.347"
         style="fill:none;stroke:#666666;stroke-width:0.2;stroke-linecap:butt;stroke-linejoin:miter;stroke-miterlimit:3.25;stroke-dasharray:none;stroke-opacity:1"
         id="path44" /><path
         d="m 149.957,222.242 v -3.918"
         style="fill:none;stroke:#666666;stroke-width:0.2;stroke-linecap:butt;stroke-linejoin:miter;stroke-miterlimit:3.25;stroke-dasharray:none;stroke-opacity:1"
         id="path46" /><text
         style="font-variant:normal;font-weight:normal;font-size:16px;font-family:Times;-inkscape-font-specification:Times-Roman;writing-mode:lr-tb;fill:#000000;fill-opacity:1;fill-rule:nonzero;stroke:none"
         id="text50"
         x="133.49393"
         y="247.22844"><tspan
           x="133.49393 141.49393 145.49393"
           y="247.22844"
           sodipodi:role="line"
           id="tspan48">0.4</tspan></text><path
         d="m 165.824,222.242 v -2.347"
         style="fill:none;stroke:#666666;stroke-width:0.2;stroke-linecap:butt;stroke-linejoin:miter;stroke-miterlimit:3.25;stroke-dasharray:none;stroke-opacity:1"
         id="path52" /><path
         d="m 181.695,222.242 v -2.347"
         style="fill:none;stroke:#666666;stroke-width:0.2;stroke-linecap:butt;stroke-linejoin:miter;stroke-miterlimit:3.25;stroke-dasharray:none;stroke-opacity:1"
         id="path54" /><path
         d="m 197.562,222.242 v -2.347"
         style="fill:none;stroke:#666666;stroke-width:0.2;stroke-linecap:butt;stroke-linejoin:miter;stroke-miterlimit:3.25;stroke-dasharray:none;stroke-opacity:1"
         id="path56" /><path
         d="m 213.434,222.242 v -3.918"
         style="fill:none;stroke:#666666;stroke-width:0.2;stroke-linecap:butt;stroke-linejoin:miter;stroke-miterlimit:3.25;stroke-dasharray:none;stroke-opacity:1"
         id="path58" /><text
         style="font-variant:normal;font-weight:normal;font-size:16px;font-family:Times;-inkscape-font-specification:Times-Roman;writing-mode:lr-tb;fill:#000000;fill-opacity:1;fill-rule:nonzero;stroke:none"
         id="text62"
         x="196.97148"
         y="247.22844"><tspan
           x="196.97148 204.97148 208.97148"
           y="247.22844"
           sodipodi:role="line"
           id="tspan60">0.6</tspan></text><path
         d="m 229.301,222.242 v -2.347"
         style="fill:none;stroke:#666666;stroke-width:0.2;stroke-linecap:butt;stroke-linejoin:miter;stroke-miterlimit:3.25;stroke-dasharray:none;stroke-opacity:1"
         id="path64" /><path
         d="m 245.172,222.242 v -2.347"
         style="fill:none;stroke:#666666;stroke-width:0.2;stroke-linecap:butt;stroke-linejoin:miter;stroke-miterlimit:3.25;stroke-dasharray:none;stroke-opacity:1"
         id="path66" /><path
         d="m 261.039,222.242 v -2.347"
         style="fill:none;stroke:#666666;stroke-width:0.2;stroke-linecap:butt;stroke-linejoin:miter;stroke-miterlimit:3.25;stroke-dasharray:none;stroke-opacity:1"
         id="path68" /><path
         d="m 276.91,222.242 v -3.918"
         style="fill:none;stroke:#666666;stroke-width:0.2;stroke-linecap:butt;stroke-linejoin:miter;stroke-miterlimit:3.25;stroke-dasharray:none;stroke-opacity:1"
         id="path70" /><text
         style="font-variant:normal;font-weight:normal;font-size:16px;font-family:Times;-inkscape-font-specification:Times-Roman;writing-mode:lr-tb;fill:#000000;fill-opacity:1;fill-rule:nonzero;stroke:none"
         id="text74"
         x="260.44904"
         y="247.22844"><tspan
           x="260.44904 268.44904 272.44904"
           y="247.22844"
           sodipodi:role="line"
           id="tspan72">0.8</tspan></text><path
         d="m 292.781,222.242 v -2.347"
         style="fill:none;stroke:#666666;stroke-width:0.2;stroke-linecap:butt;stroke-linejoin:miter;stroke-miterlimit:3.25;stroke-dasharray:none;stroke-opacity:1"
         id="path76" /><path
         d="m 308.648,222.242 v -2.347"
         style="fill:none;stroke:#666666;stroke-width:0.2;stroke-linecap:butt;stroke-linejoin:miter;stroke-miterlimit:3.25;stroke-dasharray:none;stroke-opacity:1"
         id="path78" /><path
         d="m 324.52,222.242 v -2.347"
         style="fill:none;stroke:#666666;stroke-width:0.2;stroke-linecap:butt;stroke-linejoin:miter;stroke-miterlimit:3.25;stroke-dasharray:none;stroke-opacity:1"
         id="path80" /><path
         d="m 340.387,222.242 v -3.918"
         style="fill:none;stroke:#666666;stroke-width:0.2;stroke-linecap:butt;stroke-linejoin:miter;stroke-miterlimit:3.25;stroke-dasharray:none;stroke-opacity:1"
         id="path82" /><text
         style="font-variant:normal;font-weight:normal;font-size:16px;font-family:Times;-inkscape-font-specification:Times-Roman;writing-mode:lr-tb;fill:#000000;fill-opacity:1;fill-rule:nonzero;stroke:none"
         id="text86"
         x="323.92661"
         y="247.22844"><tspan
           x="323.92661 331.92661 335.92661"
           y="247.22844"
           sodipodi:role="line"
           id="tspan84">1.0</tspan></text><path
         d="M 16.387,222.242 H 347"
         style="fill:none;stroke:#666666;stroke-width:0.2;stroke-linecap:butt;stroke-linejoin:miter;stroke-miterlimit:3.25;stroke-dasharray:none;stroke-opacity:1"
         id="path88" /><text
         transform="translate(355,226.24301)"
         style="font-variant:normal;font-weight:normal;font-size:16px;font-family:Times;-inkscape-font-specification:Times-Roman;writing-mode:lr-tb;fill:#000000;fill-opacity:1;fill-rule:nonzero;stroke:none"
         id="text92"><tspan
           x="0"
           y="0"
           id="tspan90">$t$</tspan></text><path
         d="m 23,222.242 h 3.918"
         style="fill:none;stroke:#666666;stroke-width:0.2;stroke-linecap:butt;stroke-linejoin:miter;stroke-miterlimit:3.25;stroke-dasharray:none;stroke-opacity:1"
         id="path94" /><path
         d="m 23,212.742 h 2.352"
         style="fill:none;stroke:#666666;stroke-width:0.2;stroke-linecap:butt;stroke-linejoin:miter;stroke-miterlimit:3.25;stroke-dasharray:none;stroke-opacity:1"
         id="path96" /><path
         d="m 23,203.242 h 2.352"
         style="fill:none;stroke:#666666;stroke-width:0.2;stroke-linecap:butt;stroke-linejoin:miter;stroke-miterlimit:3.25;stroke-dasharray:none;stroke-opacity:1"
         id="path98" /><path
         d="m 23,193.738 h 2.352"
         style="fill:none;stroke:#666666;stroke-width:0.2;stroke-linecap:butt;stroke-linejoin:miter;stroke-miterlimit:3.25;stroke-dasharray:none;stroke-opacity:1"
         id="path100" /><path
         d="m 23,184.238 h 3.918"
         style="fill:none;stroke:#666666;stroke-width:0.2;stroke-linecap:butt;stroke-linejoin:miter;stroke-miterlimit:3.25;stroke-dasharray:none;stroke-opacity:1"
         id="path102" /><text
         style="font-variant:normal;font-weight:normal;font-size:16px;font-family:Times;-inkscape-font-specification:Times-Roman;writing-mode:lr-tb;fill:#000000;fill-opacity:1;fill-rule:nonzero;stroke:none"
         id="text106"
         x="-8.8106794"
         y="187.06296"><tspan
           x="-8.8106794 -0.81067955 3.1893206"
           y="187.06296"
           sodipodi:role="line"
           id="tspan104">0.2</tspan></text><path
         d="m 23,174.738 h 2.352"
         style="fill:none;stroke:#666666;stroke-width:0.2;stroke-linecap:butt;stroke-linejoin:miter;stroke-miterlimit:3.25;stroke-dasharray:none;stroke-opacity:1"
         id="path108" /><path
         d="m 23,165.234 h 2.352"
         style="fill:none;stroke:#666666;stroke-width:0.2;stroke-linecap:butt;stroke-linejoin:miter;stroke-miterlimit:3.25;stroke-dasharray:none;stroke-opacity:1"
         id="path110" /><path
         d="m 23,155.734 h 2.352"
         style="fill:none;stroke:#666666;stroke-width:0.2;stroke-linecap:butt;stroke-linejoin:miter;stroke-miterlimit:3.25;stroke-dasharray:none;stroke-opacity:1"
         id="path112" /><path
         d="m 23,146.23 h 3.918"
         style="fill:none;stroke:#666666;stroke-width:0.2;stroke-linecap:butt;stroke-linejoin:miter;stroke-miterlimit:3.25;stroke-dasharray:none;stroke-opacity:1"
         id="path114" /><text
         style="font-variant:normal;font-weight:normal;font-size:16px;font-family:Times;-inkscape-font-specification:Times-Roman;writing-mode:lr-tb;fill:#000000;fill-opacity:1;fill-rule:nonzero;stroke:none"
         id="text118"
         x="-8.8106794"
         y="149.05765"><tspan
           x="-8.8106794 -0.81067955 3.1893206"
           y="149.05765"
           sodipodi:role="line"
           id="tspan116">0.4</tspan></text><path
         d="m 23,136.73 h 2.352"
         style="fill:none;stroke:#666666;stroke-width:0.2;stroke-linecap:butt;stroke-linejoin:miter;stroke-miterlimit:3.25;stroke-dasharray:none;stroke-opacity:1"
         id="path120" /><path
         d="m 23,127.23 h 2.352"
         style="fill:none;stroke:#666666;stroke-width:0.2;stroke-linecap:butt;stroke-linejoin:miter;stroke-miterlimit:3.25;stroke-dasharray:none;stroke-opacity:1"
         id="path122" /><path
         d="m 23,117.727 h 2.352"
         style="fill:none;stroke:#666666;stroke-width:0.2;stroke-linecap:butt;stroke-linejoin:miter;stroke-miterlimit:3.25;stroke-dasharray:none;stroke-opacity:1"
         id="path124" /><path
         d="m 23,108.227 h 3.918"
         style="fill:none;stroke:#666666;stroke-width:0.2;stroke-linecap:butt;stroke-linejoin:miter;stroke-miterlimit:3.25;stroke-dasharray:none;stroke-opacity:1"
         id="path126" /><text
         style="font-variant:normal;font-weight:normal;font-size:16px;font-family:Times;-inkscape-font-specification:Times-Roman;writing-mode:lr-tb;fill:#000000;fill-opacity:1;fill-rule:nonzero;stroke:none"
         id="text130"
         x="-8.8106794"
         y="111.05233"><tspan
           x="-8.8106794 -0.81067955 3.1893206"
           y="111.05233"
           sodipodi:role="line"
           id="tspan128">0.6</tspan></text><path
         d="m 23,98.727 h 2.352"
         style="fill:none;stroke:#666666;stroke-width:0.2;stroke-linecap:butt;stroke-linejoin:miter;stroke-miterlimit:3.25;stroke-dasharray:none;stroke-opacity:1"
         id="path132" /><path
         d="m 23,89.223 h 2.352"
         style="fill:none;stroke:#666666;stroke-width:0.2;stroke-linecap:butt;stroke-linejoin:miter;stroke-miterlimit:3.25;stroke-dasharray:none;stroke-opacity:1"
         id="path134" /><path
         d="m 23,79.723 h 2.352"
         style="fill:none;stroke:#666666;stroke-width:0.2;stroke-linecap:butt;stroke-linejoin:miter;stroke-miterlimit:3.25;stroke-dasharray:none;stroke-opacity:1"
         id="path136" /><path
         d="m 23,70.223 h 3.918"
         style="fill:none;stroke:#666666;stroke-width:0.2;stroke-linecap:butt;stroke-linejoin:miter;stroke-miterlimit:3.25;stroke-dasharray:none;stroke-opacity:1"
         id="path138" /><text
         style="font-variant:normal;font-weight:normal;font-size:16px;font-family:Times;-inkscape-font-specification:Times-Roman;writing-mode:lr-tb;fill:#000000;fill-opacity:1;fill-rule:nonzero;stroke:none"
         id="text142"
         x="-8.8106794"
         y="73.047028"><tspan
           x="-8.8106794 -0.81067955 3.1893206"
           y="73.047028"
           sodipodi:role="line"
           id="tspan140">0.8</tspan></text><path
         d="m 23,60.719 h 2.352"
         style="fill:none;stroke:#666666;stroke-width:0.2;stroke-linecap:butt;stroke-linejoin:miter;stroke-miterlimit:3.25;stroke-dasharray:none;stroke-opacity:1"
         id="path144" /><path
         d="m 23,51.219 h 2.352"
         style="fill:none;stroke:#666666;stroke-width:0.2;stroke-linecap:butt;stroke-linejoin:miter;stroke-miterlimit:3.25;stroke-dasharray:none;stroke-opacity:1"
         id="path146" /><path
         d="m 23,41.719 h 2.352"
         style="fill:none;stroke:#666666;stroke-width:0.2;stroke-linecap:butt;stroke-linejoin:miter;stroke-miterlimit:3.25;stroke-dasharray:none;stroke-opacity:1"
         id="path148" /><path
         d="m 23,32.215 h 3.918"
         style="fill:none;stroke:#666666;stroke-width:0.2;stroke-linecap:butt;stroke-linejoin:miter;stroke-miterlimit:3.25;stroke-dasharray:none;stroke-opacity:1"
         id="path150" /><text
         style="font-variant:normal;font-weight:normal;font-size:16px;font-family:Times;-inkscape-font-specification:Times-Roman;writing-mode:lr-tb;fill:#000000;fill-opacity:1;fill-rule:nonzero;stroke:none"
         id="text154"
         x="-8.8106794"
         y="35.041721"><tspan
           x="-8.8106794 -0.81067955 3.1893206"
           y="35.041721"
           sodipodi:role="line"
           id="tspan152">1.0</tspan></text><path
         d="m 23,22.715 h 2.352"
         style="fill:none;stroke:#666666;stroke-width:0.2;stroke-linecap:butt;stroke-linejoin:miter;stroke-miterlimit:3.25;stroke-dasharray:none;stroke-opacity:1"
         id="path156" /><path
         d="M 23,226.328 V 22"
         style="fill:none;stroke:#666666;stroke-width:0.2;stroke-linecap:butt;stroke-linejoin:miter;stroke-miterlimit:3.25;stroke-dasharray:none;stroke-opacity:1"
         id="path158" /><text
         transform="translate(19,12)"
         style="font-variant:normal;font-weight:normal;font-size:15px;font-family:Mathematica;-inkscape-font-specification:Mathematica;writing-mode:lr-tb;fill:#000000;fill-opacity:1;fill-rule:nonzero;stroke:none"
         id="text162"><tspan
           x="0"
           y="0"
           id="tspan160">$\lambda$</tspan></text></g></g></svg>
