<?xml version="1.0" encoding="UTF-8" standalone="no"?>
<!-- Created with Inkscape (http://www.inkscape.org/) -->

<svg
   version="1.1"
   id="svg2"
   xml:space="preserve"
   width="480"
   height="322.66666"
   viewBox="0 0 480 322.66666"
   sodipodi:docname="lambda_poro.svg"
   inkscape:version="1.1.1 (3bf5ae0d25, 2021-09-20)"
   xmlns:inkscape="http://www.inkscape.org/namespaces/inkscape"
   xmlns:sodipodi="http://sodipodi.sourceforge.net/DTD/sodipodi-0.dtd"
   xmlns="http://www.w3.org/2000/svg"
   xmlns:svg="http://www.w3.org/2000/svg"><defs
     id="defs6" /><sodipodi:namedview
     id="namedview4"
     pagecolor="#ffffff"
     bordercolor="#666666"
     borderopacity="1.0"
     inkscape:pageshadow="2"
     inkscape:pageopacity="0.0"
     inkscape:pagecheckerboard="0"
     showgrid="false"
     inkscape:zoom="2.575"
     inkscape:cx="240"
     inkscape:cy="161.35922"
     inkscape:window-width="3440"
     inkscape:window-height="1369"
     inkscape:window-x="-8"
     inkscape:window-y="-8"
     inkscape:window-maximized="1"
     inkscape:current-layer="g10" /><g
     id="g8"
     inkscape:groupmode="layer"
     inkscape:label="lambda_poro"
     transform="matrix(1.3333333,0,0,1.3333333,0,1.14e-5)"><g
       id="g10"><path
         d="M 0,0 H 360 V 242.16 H 0 Z"
         style="fill:none;stroke:#ffffff;stroke-width:1;stroke-linecap:butt;stroke-linejoin:miter;stroke-miterlimit:10;stroke-dasharray:none;stroke-opacity:1"
         id="path14" /><path
         d="M 23,222.242 54.738,184.238 86.477,146.23 118.215,108.227 149.957,70.223 181.695,32.215 H 340.387"
         style="fill:none;stroke:#409200;stroke-width:1.6;stroke-linecap:square;stroke-linejoin:miter;stroke-miterlimit:3.25;stroke-dasharray:none;stroke-opacity:1"
         id="path16" /><g
         aria-label="●●●●●
●●●●●●"
         transform="translate(19.5,224.74301)"
         id="text30"
         style="font-size:10px;font-family:MathematicaSans;-inkscape-font-specification:MathematicaSans;fill:#409200;fill-opacity:1"><path
           d="m 0.86425781,-2.8125 q 0,-0.8935547 0.62988279,-1.5234375 0.6298828,-0.6298828 1.5234375,-0.6298828 0.8886719,0 1.5185547,0.6298828 0.6298828,0.6298828 0.6298828,1.5234375 0,0.8886719 -0.6298828,1.5185547 -0.6298828,0.6298828 -1.5185547,0.6298828 -0.8935547,0 -1.5234375,-0.6298828 Q 0.86425781,-1.9238281 0.86425781,-2.8125 Z"
           id="path985"
           style="fill:#409200;fill-opacity:1" /><path
           d="m 32.603037,-40.81781 q 0,-0.893555 0.629883,-1.523438 0.629883,-0.629882 1.523437,-0.629882 0.888672,0 1.518555,0.629882 0.629883,0.629883 0.629883,1.523438 0,0.888672 -0.629883,1.518555 -0.629883,0.629882 -1.518555,0.629882 -0.893554,0 -1.523437,-0.629882 -0.629883,-0.629883 -0.629883,-1.518555 z"
           id="path987"
           style="fill:#409200;fill-opacity:1" /><path
           d="m 64.341816,-78.82312 q 0,-0.893555 0.629883,-1.523438 0.629883,-0.629882 1.523437,-0.629882 0.888672,0 1.518555,0.629882 0.629883,0.629883 0.629883,1.523438 0,0.888672 -0.629883,1.518555 -0.629883,0.629882 -1.518555,0.629882 -0.893554,0 -1.523437,-0.629882 -0.629883,-0.629883 -0.629883,-1.518555 z"
           id="path989"
           style="fill:#409200;fill-opacity:1" /><path
           d="m 96.080597,-116.82843 q 0,-0.89355 0.629883,-1.52344 0.629883,-0.62988 1.523437,-0.62988 0.888672,0 1.518555,0.62988 0.629878,0.62989 0.629878,1.52344 0,0.88867 -0.629878,1.51855 -0.629883,0.62989 -1.518555,0.62989 -0.893554,0 -1.523437,-0.62989 -0.629883,-0.62988 -0.629883,-1.51855 z"
           id="path991"
           style="fill:#409200;fill-opacity:1" /><path
           d="m 127.81937,-154.83374 q 0,-0.89355 0.62989,-1.52344 0.62988,-0.62988 1.52343,-0.62988 0.88868,0 1.51856,0.62988 0.62988,0.62989 0.62988,1.52344 0,0.88867 -0.62988,1.51855 -0.62988,0.62989 -1.51856,0.62989 -0.89355,0 -1.52343,-0.62989 -0.62989,-0.62988 -0.62989,-1.51855 z"
           id="path993"
           style="fill:#409200;fill-opacity:1" /><path
           d="m 159.55815,-192.83905 q 0,-0.89355 0.62988,-1.52344 0.62989,-0.62988 1.52344,-0.62988 0.88867,0 1.51856,0.62988 0.62988,0.62989 0.62988,1.52344 0,0.88867 -0.62988,1.51855 -0.62989,0.62989 -1.51856,0.62989 -0.89355,0 -1.52344,-0.62989 -0.62988,-0.62988 -0.62988,-1.51855 z"
           id="path995"
           style="fill:#409200;fill-opacity:1" /><path
           d="m 191.29816,-192.83905 q 0,-0.89355 0.62988,-1.52344 0.62988,-0.62988 1.52344,-0.62988 0.88867,0 1.51855,0.62988 0.62988,0.62989 0.62988,1.52344 0,0.88867 -0.62988,1.51855 -0.62988,0.62989 -1.51855,0.62989 -0.89356,0 -1.52344,-0.62989 -0.62988,-0.62988 -0.62988,-1.51855 z"
           id="path997"
           style="fill:#409200;fill-opacity:1" /><path
           d="m 223.02815,-192.83905 q 0,-0.89355 0.62989,-1.52344 0.62988,-0.62988 1.52343,-0.62988 0.88867,0 1.51856,0.62988 0.62988,0.62989 0.62988,1.52344 0,0.88867 -0.62988,1.51855 -0.62989,0.62989 -1.51856,0.62989 -0.89355,0 -1.52343,-0.62989 -0.62989,-0.62988 -0.62989,-1.51855 z"
           id="path999"
           style="fill:#409200;fill-opacity:1" /><path
           d="m 254.76816,-192.83905 q 0,-0.89355 0.62988,-1.52344 0.62988,-0.62988 1.52344,-0.62988 0.88867,0 1.51855,0.62988 0.62989,0.62989 0.62989,1.52344 0,0.88867 -0.62989,1.51855 -0.62988,0.62989 -1.51855,0.62989 -0.89356,0 -1.52344,-0.62989 -0.62988,-0.62988 -0.62988,-1.51855 z"
           id="path1001"
           style="fill:#409200;fill-opacity:1" /><path
           d="m 286.50815,-192.83905 q 0,-0.89355 0.62988,-1.52344 0.62988,-0.62988 1.52344,-0.62988 0.88867,0 1.51855,0.62988 0.62989,0.62989 0.62989,1.52344 0,0.88867 -0.62989,1.51855 -0.62988,0.62989 -1.51855,0.62989 -0.89356,0 -1.52344,-0.62989 -0.62988,-0.62988 -0.62988,-1.51855 z"
           id="path1003"
           style="fill:#409200;fill-opacity:1" /><path
           d="m 318.25204,-192.83905 q 0,-0.89355 0.62989,-1.52344 0.62988,-0.62988 1.52343,-0.62988 0.88868,0 1.51856,0.62988 0.62988,0.62989 0.62988,1.52344 0,0.88867 -0.62988,1.51855 -0.62988,0.62989 -1.51856,0.62989 -0.89355,0 -1.52343,-0.62989 -0.62989,-0.62988 -0.62989,-1.51855 z"
           id="path1005"
           style="fill:#409200;fill-opacity:1" /></g><path
         d="m 23,222.242 v -3.918"
         style="fill:none;stroke:#666666;stroke-width:0.2;stroke-linecap:butt;stroke-linejoin:miter;stroke-miterlimit:3.25;stroke-dasharray:none;stroke-opacity:1"
         id="path32" /><path
         d="m 38.871,222.242 v -2.347"
         style="fill:none;stroke:#666666;stroke-width:0.2;stroke-linecap:butt;stroke-linejoin:miter;stroke-miterlimit:3.25;stroke-dasharray:none;stroke-opacity:1"
         id="path34" /><path
         d="m 54.738,222.242 v -2.347"
         style="fill:none;stroke:#666666;stroke-width:0.2;stroke-linecap:butt;stroke-linejoin:miter;stroke-miterlimit:3.25;stroke-dasharray:none;stroke-opacity:1"
         id="path36" /><path
         d="m 70.609,222.242 v -2.347"
         style="fill:none;stroke:#666666;stroke-width:0.2;stroke-linecap:butt;stroke-linejoin:miter;stroke-miterlimit:3.25;stroke-dasharray:none;stroke-opacity:1"
         id="path38" /><path
         d="m 86.477,222.242 v -3.918"
         style="fill:none;stroke:#666666;stroke-width:0.2;stroke-linecap:butt;stroke-linejoin:miter;stroke-miterlimit:3.25;stroke-dasharray:none;stroke-opacity:1"
         id="path40" /><text
         style="font-variant:normal;font-weight:normal;font-size:16px;font-family:Times;-inkscape-font-specification:Times-Roman;writing-mode:lr-tb;fill:#000000;fill-opacity:1;fill-rule:nonzero;stroke:none"
         id="text44"
         x="74.729973"
         y="237.53427"><tspan
           x="74.729973 82.729973 86.729973"
           y="237.53427"
           sodipodi:role="line"
           id="tspan42">0.2</tspan></text><path
         d="m 102.348,222.242 v -2.347"
         style="fill:none;stroke:#666666;stroke-width:0.2;stroke-linecap:butt;stroke-linejoin:miter;stroke-miterlimit:3.25;stroke-dasharray:none;stroke-opacity:1"
         id="path46" /><path
         d="m 118.215,222.242 v -2.347"
         style="fill:none;stroke:#666666;stroke-width:0.2;stroke-linecap:butt;stroke-linejoin:miter;stroke-miterlimit:3.25;stroke-dasharray:none;stroke-opacity:1"
         id="path48" /><path
         d="m 134.086,222.242 v -2.347"
         style="fill:none;stroke:#666666;stroke-width:0.2;stroke-linecap:butt;stroke-linejoin:miter;stroke-miterlimit:3.25;stroke-dasharray:none;stroke-opacity:1"
         id="path50" /><path
         d="m 149.957,222.242 v -3.918"
         style="fill:none;stroke:#666666;stroke-width:0.2;stroke-linecap:butt;stroke-linejoin:miter;stroke-miterlimit:3.25;stroke-dasharray:none;stroke-opacity:1"
         id="path52" /><text
         style="font-variant:normal;font-weight:normal;font-size:16px;font-family:Times;-inkscape-font-specification:Times-Roman;writing-mode:lr-tb;fill:#000000;fill-opacity:1;fill-rule:nonzero;stroke:none"
         id="text56"
         x="138.20752"
         y="237.53427"><tspan
           x="138.20752 146.20752 150.20752"
           y="237.53427"
           sodipodi:role="line"
           id="tspan54">0.4</tspan></text><path
         d="m 165.824,222.242 v -2.347"
         style="fill:none;stroke:#666666;stroke-width:0.2;stroke-linecap:butt;stroke-linejoin:miter;stroke-miterlimit:3.25;stroke-dasharray:none;stroke-opacity:1"
         id="path58" /><path
         d="m 181.695,222.242 v -2.347"
         style="fill:none;stroke:#666666;stroke-width:0.2;stroke-linecap:butt;stroke-linejoin:miter;stroke-miterlimit:3.25;stroke-dasharray:none;stroke-opacity:1"
         id="path60" /><path
         d="m 197.562,222.242 v -2.347"
         style="fill:none;stroke:#666666;stroke-width:0.2;stroke-linecap:butt;stroke-linejoin:miter;stroke-miterlimit:3.25;stroke-dasharray:none;stroke-opacity:1"
         id="path62" /><path
         d="m 213.434,222.242 v -3.918"
         style="fill:none;stroke:#666666;stroke-width:0.2;stroke-linecap:butt;stroke-linejoin:miter;stroke-miterlimit:3.25;stroke-dasharray:none;stroke-opacity:1"
         id="path64" /><text
         style="font-variant:normal;font-weight:normal;font-size:16px;font-family:Times;-inkscape-font-specification:Times-Roman;writing-mode:lr-tb;fill:#000000;fill-opacity:1;fill-rule:nonzero;stroke:none"
         id="text68"
         x="201.68507"
         y="237.53427"><tspan
           x="201.68507 209.68507 213.68507"
           y="237.53427"
           sodipodi:role="line"
           id="tspan66">0.6</tspan></text><path
         d="m 229.301,222.242 v -2.347"
         style="fill:none;stroke:#666666;stroke-width:0.2;stroke-linecap:butt;stroke-linejoin:miter;stroke-miterlimit:3.25;stroke-dasharray:none;stroke-opacity:1"
         id="path70" /><path
         d="m 245.172,222.242 v -2.347"
         style="fill:none;stroke:#666666;stroke-width:0.2;stroke-linecap:butt;stroke-linejoin:miter;stroke-miterlimit:3.25;stroke-dasharray:none;stroke-opacity:1"
         id="path72" /><path
         d="m 261.039,222.242 v -2.347"
         style="fill:none;stroke:#666666;stroke-width:0.2;stroke-linecap:butt;stroke-linejoin:miter;stroke-miterlimit:3.25;stroke-dasharray:none;stroke-opacity:1"
         id="path74" /><path
         d="m 276.91,222.242 v -3.918"
         style="fill:none;stroke:#666666;stroke-width:0.2;stroke-linecap:butt;stroke-linejoin:miter;stroke-miterlimit:3.25;stroke-dasharray:none;stroke-opacity:1"
         id="path76" /><text
         style="font-variant:normal;font-weight:normal;font-size:16px;font-family:Times;-inkscape-font-specification:Times-Roman;writing-mode:lr-tb;fill:#000000;fill-opacity:1;fill-rule:nonzero;stroke:none"
         id="text80"
         x="265.16263"
         y="237.53427"><tspan
           x="265.16263 273.16263 277.16263"
           y="237.53427"
           sodipodi:role="line"
           id="tspan78">0.8</tspan></text><path
         d="m 292.781,222.242 v -2.347"
         style="fill:none;stroke:#666666;stroke-width:0.2;stroke-linecap:butt;stroke-linejoin:miter;stroke-miterlimit:3.25;stroke-dasharray:none;stroke-opacity:1"
         id="path82" /><path
         d="m 308.648,222.242 v -2.347"
         style="fill:none;stroke:#666666;stroke-width:0.2;stroke-linecap:butt;stroke-linejoin:miter;stroke-miterlimit:3.25;stroke-dasharray:none;stroke-opacity:1"
         id="path84" /><path
         d="m 324.52,222.242 v -2.347"
         style="fill:none;stroke:#666666;stroke-width:0.2;stroke-linecap:butt;stroke-linejoin:miter;stroke-miterlimit:3.25;stroke-dasharray:none;stroke-opacity:1"
         id="path86" /><path
         d="m 340.387,222.242 v -3.918"
         style="fill:none;stroke:#666666;stroke-width:0.2;stroke-linecap:butt;stroke-linejoin:miter;stroke-miterlimit:3.25;stroke-dasharray:none;stroke-opacity:1"
         id="path88" /><text
         style="font-variant:normal;font-weight:normal;font-size:16px;font-family:Times;-inkscape-font-specification:Times-Roman;writing-mode:lr-tb;fill:#000000;fill-opacity:1;fill-rule:nonzero;stroke:none"
         id="text92"
         x="328.6402"
         y="237.53427"><tspan
           x="328.6402 336.6402 340.6402"
           y="237.53427"
           sodipodi:role="line"
           id="tspan90">1.0</tspan></text><path
         d="M 16.387,222.242 H 347"
         style="fill:none;stroke:#666666;stroke-width:0.2;stroke-linecap:butt;stroke-linejoin:miter;stroke-miterlimit:3.25;stroke-dasharray:none;stroke-opacity:1"
         id="path94" /><text
         transform="translate(355,226.24301)"
         style="font-variant:normal;font-weight:normal;font-size:16px;font-family:Times;-inkscape-font-specification:Times-Roman;writing-mode:lr-tb;fill:#000000;fill-opacity:1;fill-rule:nonzero;stroke:none"
         id="text98"><tspan
           x="0"
           y="0"
           id="tspan96">$t$</tspan></text><path
         d="m 23,222.242 h 3.918"
         style="fill:none;stroke:#666666;stroke-width:0.2;stroke-linecap:butt;stroke-linejoin:miter;stroke-miterlimit:3.25;stroke-dasharray:none;stroke-opacity:1"
         id="path100" /><path
         d="m 23,212.742 h 2.352"
         style="fill:none;stroke:#666666;stroke-width:0.2;stroke-linecap:butt;stroke-linejoin:miter;stroke-miterlimit:3.25;stroke-dasharray:none;stroke-opacity:1"
         id="path102" /><path
         d="m 23,203.242 h 2.352"
         style="fill:none;stroke:#666666;stroke-width:0.2;stroke-linecap:butt;stroke-linejoin:miter;stroke-miterlimit:3.25;stroke-dasharray:none;stroke-opacity:1"
         id="path104" /><path
         d="m 23,193.738 h 2.352"
         style="fill:none;stroke:#666666;stroke-width:0.2;stroke-linecap:butt;stroke-linejoin:miter;stroke-miterlimit:3.25;stroke-dasharray:none;stroke-opacity:1"
         id="path106" /><path
         d="m 23,184.238 h 3.918"
         style="fill:none;stroke:#666666;stroke-width:0.2;stroke-linecap:butt;stroke-linejoin:miter;stroke-miterlimit:3.25;stroke-dasharray:none;stroke-opacity:1"
         id="path108" /><text
         style="font-variant:normal;font-weight:normal;font-size:16px;font-family:Times;-inkscape-font-specification:Times-Roman;writing-mode:lr-tb;fill:#000000;fill-opacity:1;fill-rule:nonzero;stroke:none"
         id="text112"
         x="0.58252418"
         y="189.69403"><tspan
           x="0.58252418 8.5825243 12.582524"
           y="189.69403"
           sodipodi:role="line"
           id="tspan110">0.2</tspan></text><path
         d="m 23,174.738 h 2.352"
         style="fill:none;stroke:#666666;stroke-width:0.2;stroke-linecap:butt;stroke-linejoin:miter;stroke-miterlimit:3.25;stroke-dasharray:none;stroke-opacity:1"
         id="path114" /><path
         d="m 23,165.234 h 2.352"
         style="fill:none;stroke:#666666;stroke-width:0.2;stroke-linecap:butt;stroke-linejoin:miter;stroke-miterlimit:3.25;stroke-dasharray:none;stroke-opacity:1"
         id="path116" /><path
         d="m 23,155.734 h 2.352"
         style="fill:none;stroke:#666666;stroke-width:0.2;stroke-linecap:butt;stroke-linejoin:miter;stroke-miterlimit:3.25;stroke-dasharray:none;stroke-opacity:1"
         id="path118" /><path
         d="m 23,146.23 h 3.918"
         style="fill:none;stroke:#666666;stroke-width:0.2;stroke-linecap:butt;stroke-linejoin:miter;stroke-miterlimit:3.25;stroke-dasharray:none;stroke-opacity:1"
         id="path120" /><text
         style="font-variant:normal;font-weight:normal;font-size:16px;font-family:Times;-inkscape-font-specification:Times-Roman;writing-mode:lr-tb;fill:#000000;fill-opacity:1;fill-rule:nonzero;stroke:none"
         id="text124"
         x="0.58252418"
         y="151.68872"><tspan
           x="0.58252418 8.5825243 12.582524"
           y="151.68872"
           sodipodi:role="line"
           id="tspan122">0.4</tspan></text><path
         d="m 23,136.73 h 2.352"
         style="fill:none;stroke:#666666;stroke-width:0.2;stroke-linecap:butt;stroke-linejoin:miter;stroke-miterlimit:3.25;stroke-dasharray:none;stroke-opacity:1"
         id="path126" /><path
         d="m 23,127.23 h 2.352"
         style="fill:none;stroke:#666666;stroke-width:0.2;stroke-linecap:butt;stroke-linejoin:miter;stroke-miterlimit:3.25;stroke-dasharray:none;stroke-opacity:1"
         id="path128" /><path
         d="m 23,117.727 h 2.352"
         style="fill:none;stroke:#666666;stroke-width:0.2;stroke-linecap:butt;stroke-linejoin:miter;stroke-miterlimit:3.25;stroke-dasharray:none;stroke-opacity:1"
         id="path130" /><path
         d="m 23,108.227 h 3.918"
         style="fill:none;stroke:#666666;stroke-width:0.2;stroke-linecap:butt;stroke-linejoin:miter;stroke-miterlimit:3.25;stroke-dasharray:none;stroke-opacity:1"
         id="path132" /><text
         style="font-variant:normal;font-weight:normal;font-size:16px;font-family:Times;-inkscape-font-specification:Times-Roman;writing-mode:lr-tb;fill:#000000;fill-opacity:1;fill-rule:nonzero;stroke:none"
         id="text136"
         x="0.58252418"
         y="113.6834"><tspan
           x="0.58252418 8.5825243 12.582524"
           y="113.6834"
           sodipodi:role="line"
           id="tspan134">0.6</tspan></text><path
         d="m 23,98.727 h 2.352"
         style="fill:none;stroke:#666666;stroke-width:0.2;stroke-linecap:butt;stroke-linejoin:miter;stroke-miterlimit:3.25;stroke-dasharray:none;stroke-opacity:1"
         id="path138" /><path
         d="m 23,89.223 h 2.352"
         style="fill:none;stroke:#666666;stroke-width:0.2;stroke-linecap:butt;stroke-linejoin:miter;stroke-miterlimit:3.25;stroke-dasharray:none;stroke-opacity:1"
         id="path140" /><path
         d="m 23,79.723 h 2.352"
         style="fill:none;stroke:#666666;stroke-width:0.2;stroke-linecap:butt;stroke-linejoin:miter;stroke-miterlimit:3.25;stroke-dasharray:none;stroke-opacity:1"
         id="path142" /><path
         d="m 23,70.223 h 3.918"
         style="fill:none;stroke:#666666;stroke-width:0.2;stroke-linecap:butt;stroke-linejoin:miter;stroke-miterlimit:3.25;stroke-dasharray:none;stroke-opacity:1"
         id="path144" /><text
         style="font-variant:normal;font-weight:normal;font-size:16px;font-family:Times;-inkscape-font-specification:Times-Roman;writing-mode:lr-tb;fill:#000000;fill-opacity:1;fill-rule:nonzero;stroke:none"
         id="text148"
         x="0.58252418"
         y="75.678093"><tspan
           x="0.58252418 8.5825243 12.582524"
           y="75.678093"
           sodipodi:role="line"
           id="tspan146">0.8</tspan></text><path
         d="m 23,60.719 h 2.352"
         style="fill:none;stroke:#666666;stroke-width:0.2;stroke-linecap:butt;stroke-linejoin:miter;stroke-miterlimit:3.25;stroke-dasharray:none;stroke-opacity:1"
         id="path150" /><path
         d="m 23,51.219 h 2.352"
         style="fill:none;stroke:#666666;stroke-width:0.2;stroke-linecap:butt;stroke-linejoin:miter;stroke-miterlimit:3.25;stroke-dasharray:none;stroke-opacity:1"
         id="path152" /><path
         d="m 23,41.719 h 2.352"
         style="fill:none;stroke:#666666;stroke-width:0.2;stroke-linecap:butt;stroke-linejoin:miter;stroke-miterlimit:3.25;stroke-dasharray:none;stroke-opacity:1"
         id="path154" /><path
         d="m 23,32.215 h 3.918"
         style="fill:none;stroke:#666666;stroke-width:0.2;stroke-linecap:butt;stroke-linejoin:miter;stroke-miterlimit:3.25;stroke-dasharray:none;stroke-opacity:1"
         id="path156" /><text
         style="font-variant:normal;font-weight:normal;font-size:16px;font-family:Times;-inkscape-font-specification:Times-Roman;writing-mode:lr-tb;fill:#000000;fill-opacity:1;fill-rule:nonzero;stroke:none"
         id="text160"
         x="0.58252418"
         y="37.672791"><tspan
           x="0.58252418 8.5825243 12.582524"
           y="37.672791"
           sodipodi:role="line"
           id="tspan158">1.0</tspan></text><path
         d="m 23,22.715 h 2.352"
         style="fill:none;stroke:#666666;stroke-width:0.2;stroke-linecap:butt;stroke-linejoin:miter;stroke-miterlimit:3.25;stroke-dasharray:none;stroke-opacity:1"
         id="path162" /><path
         d="M 23,226.328 V 22"
         style="fill:none;stroke:#666666;stroke-width:0.2;stroke-linecap:butt;stroke-linejoin:miter;stroke-miterlimit:3.25;stroke-dasharray:none;stroke-opacity:1"
         id="path164" /><text
         transform="translate(19,12)"
         style="font-variant:normal;font-weight:normal;font-size:15px;font-family:Mathematica;-inkscape-font-specification:Mathematica;writing-mode:lr-tb;fill:#000000;fill-opacity:1;fill-rule:nonzero;stroke:none"
         id="text168"><tspan
           x="0"
           y="0"
           id="tspan166">$\lambda$</tspan></text></g></g></svg>
